<?xml version="1.0" encoding="UTF-8"?>
<svg width="800" height="500" viewBox="0 0 800 500" xmlns="http://www.w3.org/2000/svg">
  <!-- Background with gradient -->
  <defs>
    <linearGradient id="bgGradient" x1="0%" y1="0%" x2="100%" y2="100%">
      <stop offset="0%" style="stop-color:#f0f4ff;stop-opacity:1" />
      <stop offset="100%" style="stop-color:#e3e8ff;stop-opacity:1" />
    </linearGradient>
    
    <!-- Shield gradient -->
    <linearGradient id="shieldGradient" x1="0%" y1="0%" x2="100%" y2="100%">
      <stop offset="0%" style="stop-color:#4a6cf7;stop-opacity:1" />
      <stop offset="100%" style="stop-color:#2a4bf7;stop-opacity:1" />
    </linearGradient>
    
    <!-- Red gradient for attack -->
    <linearGradient id="attackGradient" x1="0%" y1="0%" x2="100%" y2="100%">
      <stop offset="0%" style="stop-color:#ff5757;stop-opacity:1" />
      <stop offset="100%" style="stop-color:#ff0000;stop-opacity:1" />
    </linearGradient>
    
    <!-- Glowing effect for shield -->
    <filter id="glow" x="-20%" y="-20%" width="140%" height="140%">
      <feGaussianBlur stdDeviation="8" result="blur" />
      <feComposite in="SourceGraphic" in2="blur" operator="over" />
    </filter>
    
    <!-- Attack animation -->
    <filter id="attackFilter" x="-20%" y="-20%" width="140%" height="140%">
      <feTurbulence type="fractalNoise" baseFrequency="0.05" numOctaves="2" result="turbulence"/>
      <feDisplacementMap in="SourceGraphic" in2="turbulence" scale="5" xChannelSelector="R" yChannelSelector="G"/>
    </filter>
  </defs>
  
  <!-- Main background -->
  <rect width="800" height="500" fill="url(#bgGradient)" rx="15" ry="15"/>
  
  <!-- Grid pattern -->
  <path d="M0 50 H800 M0 100 H800 M0 150 H800 M0 200 H800 M0 250 H800 M0 300 H800 M0 350 H800 M0 400 H800 M0 450 H800" stroke="#dde4ff" stroke-width="1" opacity="0.5"/>
  <path d="M50 0 V500 M100 0 V500 M150 0 V500 M200 0 V500 M250 0 V500 M300 0 V500 M350 0 V500 M400 0 V500 M450 0 V500 M500 0 V500 M550 0 V500 M600 0 V500 M650 0 V500 M700 0 V500 M750 0 V500" stroke="#dde4ff" stroke-width="1" opacity="0.5"/>
  
  <!-- Abstract cyber elements -->
  <circle cx="100" cy="100" r="20" fill="#4a6cf7" opacity="0.1"/>
  <circle cx="700" cy="400" r="30" fill="#4a6cf7" opacity="0.1"/>
  <circle cx="200" cy="450" r="15" fill="#4a6cf7" opacity="0.1"/>
  <circle cx="600" cy="150" r="25" fill="#4a6cf7" opacity="0.1"/>
  
  <!-- Main web server -->
  <g transform="translate(150, 200)">
    <!-- Server base -->
    <rect x="0" y="0" width="150" height="200" rx="10" ry="10" fill="#ffffff" stroke="#e0e4f0" stroke-width="2"/>
    
    <!-- Server details -->
    <rect x="20" y="20" width="110" height="10" rx="2" ry="2" fill="#f0f4f8"/>
    <rect x="20" y="40" width="110" height="10" rx="2" ry="2" fill="#f0f4f8"/>
    <rect x="20" y="60" width="110" height="10" rx="2" ry="2" fill="#f0f4f8"/>
    <rect x="20" y="80" width="80" height="10" rx="2" ry="2" fill="#f0f4f8"/>
    
    <!-- Server indicators -->
    <circle cx="30" cy="120" r="6" fill="#4ade80"/>
    <circle cx="50" cy="120" r="6" fill="#facc15"/>
    <circle cx="70" cy="120" r="6" fill="#f87171"/>
    
    <!-- Server icon -->
    <path d="M60 150 h30 v30 h-30 z" fill="#4a6cf7"/>
    <path d="M65 160 h20 M65 170 h20" stroke="#ffffff" stroke-width="2"/>
    
    <!-- Server label -->
    <text x="75" y="195" font-family="Arial, sans-serif" font-size="12" fill="#4a6cf7" text-anchor="middle">Web Server</text>
  </g>
  
  <!-- Web browser -->
  <g transform="translate(500, 200)">
    <!-- Browser window -->
    <rect x="0" y="0" width="180" height="200" rx="10" ry="10" fill="#ffffff" stroke="#e0e4f0" stroke-width="2"/>
    
    <!-- Browser header -->
    <rect x="0" y="0" width="180" height="30" rx="10" ry="10" fill="#f5f7ff" stroke="#e0e4f0" stroke-width="2"/>
    
    <!-- Browser controls -->
    <circle cx="15" cy="15" r="5" fill="#f87171"/>
    <circle cx="30" cy="15" r="5" fill="#facc15"/>
    <circle cx="45" cy="15" r="5" fill="#4ade80"/>
    
    <!-- URL bar -->
    <rect x="60" y="10" width="110" height="15" rx="3" ry="3" fill="#ffffff" stroke="#d1d5db" stroke-width="1"/>
    <text x="65" y="21" font-family="Arial, sans-serif" font-size="9" fill="#6b7280">https://example.com</text>
    
    <!-- Browser content -->
    <rect x="10" y="40" width="160" height="15" rx="2" ry="2" fill="#f0f4f8"/>
    <rect x="10" y="65" width="160" height="10" rx="2" ry="2" fill="#f0f4f8"/>
    <rect x="10" y="85" width="120" height="10" rx="2" ry="2" fill="#f0f4f8"/>
    <rect x="10" y="105" width="140" height="10" rx="2" ry="2" fill="#f0f4f8"/>
    
    <!-- Form input with XSS vulnerability -->
    <rect x="10" y="130" width="160" height="25" rx="3" ry="3" fill="#ffffff" stroke="#d1d5db" stroke-width="1"/>
    <text x="15" y="147" font-family="monospace" font-size="10" fill="#ef4444">&lt;script&gt;alert('Xpwned')&lt;/script&gt;</text>
    
    <!-- Submit button -->
    <rect x="130" y="165" width="40" height="20" rx="3" ry="3" fill="#4a6cf7"/>
    <text x="150" y="178" font-family="Arial, sans-serif" font-size="9" fill="#ffffff" text-anchor="middle">Submit</text>
    
    <!-- Browser label -->
    <text x="90" y="195" font-family="Arial, sans-serif" font-size="12" fill="#4a6cf7" text-anchor="middle">Web Browser</text>
  </g>
  
  <!-- Attack vectors -->
  <path d="M300 250 Q 350 220, 500 235" fill="none" stroke="url(#attackGradient)" stroke-width="2.5" stroke-dasharray="4,2" opacity="0.8" filter="url(#attackFilter)"/>
  <path d="M300 270 Q 400 300, 500 280" fill="none" stroke="url(#attackGradient)" stroke-width="2.5" stroke-dasharray="4,2" opacity="0.8" filter="url(#attackFilter)"/>
  
  <!-- XSS code samples -->
  <text x="350" y="225" font-family="monospace" font-size="11" fill="#ef4444" transform="rotate(-5)">&lt;script&gt;alert('Xpwned')&lt;/script&gt;</text>
  <text x="350" y="300" font-family="monospace" font-size="11" fill="#ef4444" transform="rotate(5)">&lt;img src=x onerror=alert('Xpwned')&gt;</text>
  
  <!-- Shield protection -->
  <g transform="translate(400, 250)">
    <path d="M0,-50 L40,-25 L40,25 L0,50 L-40,25 L-40,-25 Z" fill="url(#shieldGradient)" filter="url(#glow)"/>
    <text x="0" y="5" font-family="Arial, sans-serif" font-size="14" fill="#ffffff" font-weight="bold" text-anchor="middle">XSS</text>
    <text x="0" y="18" font-family="Arial, sans-serif" font-size="7" fill="#ffffff" text-anchor="middle">PROTECTION</text>
  </g>
  
  <!-- Abstract code lines -->
  <g transform="translate(90, 440)" opacity="0.7">
    <text font-family="monospace" font-size="10" fill="#4a6cf7">validateInput(userInput) {</text>
    <text y="15" font-family="monospace" font-size="10" fill="#4a6cf7">  return escapeHTML(userInput);</text>
    <text y="30" font-family="monospace" font-size="10" fill="#4a6cf7">}</text>
  </g>
  
  <g transform="translate(580, 100)" opacity="0.7">
    <text font-family="monospace" font-size="10" fill="#4a6cf7">function escapeHTML(unsafe) {</text>
    <text y="15" font-family="monospace" font-size="10" fill="#4a6cf7">  return unsafe.replace(/&/g, "&amp;")</text>
    <text y="30" font-family="monospace" font-size="10" fill="#4a6cf7">             .replace(/</g, "&lt;")</text>
    <text y="45" font-family="monospace" font-size="10" fill="#4a6cf7">             .replace(/>/g, "&gt;");</text>
    <text y="60" font-family="monospace" font-size="10" fill="#4a6cf7">}</text>
  </g>
  
  <!-- Title -->
  <text x="400" y="80" font-family="Arial, sans-serif" font-size="26" fill="#1e293b" font-weight="bold" text-anchor="middle">Master Cross-Site Scripting (XSS) Security</text>
  
  <!-- Subtitle -->
  <text x="400" y="110" font-family="Arial, sans-serif" font-size="16" fill="#4b5563" text-anchor="middle">Learn to identify, exploit, and defend against web vulnerabilities</text>
  
  <!-- XSSploit logo -->
  <g transform="translate(400, 40)">
    <text x="0" y="0" font-family="Arial, sans-serif" font-size="36" font-weight="bold" fill="#4a6cf7" text-anchor="middle">XSSploit</text>
    <path d="M-80,-5 L80,-5" stroke="#4a6cf7" stroke-width="3" opacity="0.3"/>
    <path d="M-60,5 L60,5" stroke="#4a6cf7" stroke-width="2" opacity="0.2"/>
  </g>
</svg>